<?xml version="1.0" standalone="no"?>
<!DOCTYPE svg PUBLIC "-//W3C//DTD SVG 20010904//EN"
 "http://www.w3.org/TR/2001/REC-SVG-20010904/DTD/svg10.dtd">
<svg version="1.0" xmlns="http://www.w3.org/2000/svg"
 width="267.000000pt" height="189.000000pt" viewBox="0 0 267.000000 189.000000"
 preserveAspectRatio="xMidYMid meet">

<g transform="translate(0.000000,189.000000) scale(0.100000,-0.100000)"
fill="#000000" stroke="none">
<path d="M1970 1715 c0 -12 15 -15 71 -15 69 0 71 -1 64 -22 -16 -53 -17 -70
-5 -99 31 -73 160 -85 233 -21 22 20 23 92 1 138 l-16 34 -174 0 c-148 0 -174
-2 -174 -15z m350 -41 c14 -35 12 -67 -4 -89 -17 -23 -131 -34 -165 -15 -33
17 -44 55 -26 95 l14 35 86 0 c83 0 86 -1 95 -26z"/>
<path d="M820 1710 c0 -5 -6 -7 -14 -4 -7 3 -16 -2 -19 -10 -6 -16 7 -14 51 7
18 9 25 8 32 -3 8 -13 10 -12 10 3 0 12 -8 17 -30 17 -16 0 -30 -4 -30 -10z"/>
<path d="M899 1711 c7 -5 11 -13 7 -19 -8 -14 56 -11 66 3 5 6 8 5 8 -2 0 -8
13 -13 29 -13 16 0 32 6 34 13 4 10 6 10 6 0 1 -19 111 -18 111 1 0 8 -17 16
-46 20 -70 9 -154 7 -154 -4 0 -5 -5 -10 -11 -10 -5 0 -7 5 -4 10 4 6 -7 10
-27 10 -23 0 -29 -3 -19 -9z"/>
<path d="M1170 1690 c0 -5 4 -10 9 -10 5 0 11 -6 14 -14 4 -11 -12 -13 -79
-13 -51 0 -84 4 -84 11 0 6 -5 5 -12 -2 -7 -7 -28 -12 -47 -13 -29 0 -32 -2
-16 -8 11 -5 23 -7 28 -4 4 2 7 -3 7 -11 0 -17 -8 -19 -50 -17 -22 1 -23 0 -7
-10 10 -6 25 -8 34 -5 11 4 14 2 9 -9 -7 -18 -5 -19 29 -1 18 9 35 12 49 6 13
-4 29 -4 39 1 11 7 17 6 17 0 0 -5 9 -8 20 -6 13 2 20 -2 20 -11 0 -12 -38
-20 -72 -15 -7 1 -50 1 -161 0 -36 0 -55 -4 -51 -11 4 -5 22 -8 40 -6 23 3 34
0 34 -9 0 -7 5 -13 10 -13 6 0 10 7 10 16 0 12 7 14 33 9 39 -9 41 -10 33 -30
-3 -9 -11 -13 -17 -9 -12 7 -130 7 -169 -1 -45 -9 -31 -14 31 -12 51 1 64 -2
67 -14 2 -12 -9 -15 -59 -15 -46 0 -64 -4 -67 -15 -3 -11 -2 -11 7 1 6 8 11
10 11 4 0 -5 23 -10 53 -11 28 -1 60 -4 70 -8 9 -4 17 -3 17 1 0 11 123 10
139 0 6 -4 11 -3 11 2 0 5 17 6 40 2 22 -4 40 -5 40 -1 0 3 20 6 45 6 34 0 45
-3 45 -15 0 -13 -1 -13 -10 0 -6 9 -10 10 -10 3 0 -7 -16 -12 -37 -12 -45 -1
-122 -2 -143 -1 -8 0 -55 -1 -105 -3 -49 -1 -107 0 -127 4 -21 3 -38 3 -38 0
0 -4 -25 -7 -56 -6 -38 1 -57 -2 -61 -12 -6 -15 -41 -17 -77 -3 -20 7 -26 17
-29 52 -3 34 -4 31 -3 -12 l1 -55 183 -3 182 -2 0 -25 0 -25 -195 0 c-163 0
-195 -2 -195 -14 0 -10 8 -13 27 -10 15 3 29 7 32 10 2 2 10 -1 16 -6 8 -7 21
-7 38 -1 15 6 29 6 32 2 6 -11 24 -9 44 3 10 7 12 5 6 -4 -6 -9 2 -11 34 -8
33 3 41 0 41 -13 0 -14 -8 -17 -37 -16 -21 1 -45 6 -53 11 -8 5 -12 6 -8 1 4
-4 4 -13 -1 -19 -7 -8 30 -11 130 -11 106 0 140 -3 144 -13 4 -11 -12 -13 -75
-10 -44 2 -80 1 -80 -2 0 -8 -150 -4 -158 4 -3 4 0 11 8 16 8 5 11 12 8 15 -8
9 -153 9 -167 1 -5 -4 -12 -2 -16 4 -4 6 -11 7 -17 4 -6 -4 4 -13 22 -20 38
-17 43 -17 35 -4 -4 6 18 9 55 9 44 -1 60 -5 60 -15 0 -14 -24 -19 -69 -15
-31 3 -71 -7 -71 -17 0 -5 13 -7 30 -4 23 3 30 0 30 -13 0 -13 -7 -16 -32 -13
-17 2 -33 -2 -35 -8 -3 -8 17 -12 59 -12 64 -1 106 -7 116 -17 3 -3 -4 -5 -16
-5 -12 0 -22 -5 -22 -11 0 -5 -4 -8 -8 -5 -19 11 -71 15 -77 6 -4 -6 -11 -8
-16 -5 -5 4 -9 2 -9 -4 0 -5 20 -8 45 -7 36 2 45 -1 45 -14 0 -14 -10 -16 -60
-15 -68 1 -84 10 -56 31 16 11 17 14 4 14 -9 0 -19 6 -21 13 -4 8 -6 6 -6 -4
-1 -12 -8 -15 -26 -11 -15 2 -25 0 -25 -7 0 -6 3 -10 8 -10 23 4 42 -3 42 -15
0 -15 -16 -16 -37 -3 -8 5 -13 3 -13 -4 0 -7 -3 -9 -7 -6 -3 4 -13 1 -21 -6
-13 -9 -14 -9 -8 1 4 7 1 12 -8 12 -10 0 -13 -6 -10 -15 7 -18 27 -19 55 -5
11 6 19 7 19 1 0 -5 8 -7 19 -4 11 3 21 -2 24 -11 5 -12 -1 -16 -26 -17 -18
-1 -40 -1 -49 0 -10 1 -25 -2 -35 -7 -15 -9 131 -17 240 -13 18 1 27 -4 27
-14 0 -15 -79 -19 -282 -15 -43 1 -68 -3 -68 -9 0 -6 7 -11 15 -11 21 0 19
-30 -2 -31 -41 -4 -67 1 -75 13 -6 10 -8 9 -8 -4 0 -9 -5 -20 -12 -24 -7 -4
-8 -3 -4 4 5 8 -2 12 -19 12 -14 0 -24 -4 -21 -9 3 -5 -1 -11 -9 -14 -10 -5
-12 -16 -8 -44 3 -21 10 -40 15 -41 4 -2 5 -8 2 -13 -10 -17 17 -106 47 -154
40 -64 89 -84 197 -85 l83 0 -2 96 c-1 53 -5 91 -9 84 -5 -8 -18 -10 -33 -6
-14 3 -28 2 -32 -4 -3 -5 -12 -7 -21 -3 -8 3 -14 2 -13 -3 4 -23 -3 -34 -21
-34 -11 0 -20 7 -20 15 0 9 6 12 15 9 8 -4 15 -2 15 4 0 15 -20 19 -71 15 -39
-2 -48 0 -52 16 -4 18 1 19 66 15 39 -1 73 -8 77 -15 6 -8 9 -8 12 1 2 7 21
12 45 12 38 -1 43 2 52 30 14 38 14 51 1 43 -5 -3 -41 -6 -80 -6 -38 0 -72 -5
-75 -10 -4 -5 10 -9 29 -9 25 0 36 -4 36 -15 0 -11 -12 -15 -47 -16 -27 0 -81
-1 -121 -2 -56 -2 -71 1 -67 11 3 8 5 17 5 21 0 4 18 7 40 6 22 0 40 -3 40 -7
0 -4 10 -4 22 1 13 4 28 6 34 4 7 -2 10 5 7 21 -5 24 -3 25 41 23 34 -1 46 -5
47 -17 0 -10 3 -9 9 5 5 11 9 16 9 10 1 -5 6 -3 11 5 7 11 10 11 10 2 0 -7 5
-10 10 -7 6 3 16 3 23 -2 24 -15 37 -11 58 18 11 16 41 41 67 56 l47 28 252 5
c235 5 253 6 280 26 42 31 82 94 89 139 l6 40 -64 -1 c-34 0 -66 4 -70 10 -5
7 -8 7 -8 -1 0 -9 -18 -13 -55 -13 -43 0 -55 3 -55 15 0 14 17 15 124 13 l124
-4 -3 182 c-3 210 -10 232 -94 285 -48 31 -61 35 -61 19z m-77 -54 c15 0 30
-3 33 -7 3 -5 10 -9 15 -9 6 0 8 4 5 9 -3 4 24 8 59 7 45 0 65 -5 65 -13 0 -7
-8 -13 -17 -14 -96 -3 -261 -3 -259 1 2 3 6 13 9 22 5 13 12 15 34 10 15 -4
41 -7 56 -6z m97 -61 c0 -8 -7 -15 -15 -15 -8 0 -15 7 -15 15 0 8 7 15 15 15
8 0 15 -7 15 -15z m110 0 c0 -11 -12 -15 -50 -15 -35 0 -50 4 -50 13 0 9 16
14 50 16 39 2 50 -1 50 -14z m-240 -51 c0 -8 -4 -14 -10 -14 -5 0 -10 9 -10
21 0 11 5 17 10 14 6 -3 10 -13 10 -21z m178 16 c13 0 22 -6 22 -15 0 -19 -66
-21 -73 -2 -4 9 -7 9 -15 -1 -13 -19 -96 -12 -100 8 -2 12 10 15 70 13 40 -1
83 -2 96 -3z m-226 -50 c26 0 38 -4 36 -12 -2 -6 -20 -11 -39 -11 -19 0 -41
-5 -49 -11 -8 -6 -12 -7 -8 -2 4 5 2 18 -4 29 -9 17 -8 19 7 14 9 -4 35 -7 57
-7z m128 -11 c0 -5 -6 -10 -12 -10 -7 -1 -25 -3 -40 -5 -28 -3 -41 20 -16 28
18 6 68 -3 68 -13z m107 -2 c-4 -12 -85 -18 -93 -6 -11 18 5 24 51 21 26 -3
44 -9 42 -15z m-144 -80 c4 3 7 -1 7 -10 0 -13 -10 -17 -45 -17 -25 0 -45 -5
-45 -10 0 -7 23 -10 58 -9 83 2 92 0 92 -14 0 -9 -13 -14 -35 -15 -26 -1 -34
2 -29 11 5 9 4 9 -7 0 -7 -7 -21 -13 -31 -13 -10 0 -18 6 -19 13 0 10 -2 10
-6 0 -8 -21 -33 -15 -33 8 0 12 -8 28 -17 35 -16 11 -15 13 11 20 17 4 36 2
48 -5 10 -6 18 -8 17 -4 -3 19 2 25 14 14 8 -6 17 -8 20 -4z m187 -13 c0 -8
-11 -13 -27 -13 -16 1 -35 0 -43 -2 -42 -7 -100 2 -100 15 0 11 19 14 85 13
63 0 85 -3 85 -13z m-30 -47 c0 -9 -11 -13 -32 -11 -45 2 -48 3 -48 12 0 5 18
9 40 10 27 1 40 -2 40 -11z m-316 -43 c9 -8 16 -17 16 -19 0 -1 -25 -2 -55 -2
-61 1 -78 23 -22 30 17 2 35 5 39 5 4 1 14 -5 22 -14z m129 -4 c5 -4 4 -11 -2
-14 -6 -4 -11 -2 -11 5 0 8 -4 8 -15 -1 -12 -10 -19 -10 -27 -2 -9 9 -15 9
-25 0 -16 -13 -28 -5 -20 14 5 15 85 13 100 -2z m127 10 c0 -3 22 -3 50 -2 32
3 50 0 50 -7 0 -6 -3 -11 -7 -12 -5 0 -16 -2 -25 -4 -10 -2 -18 2 -18 8 0 8
-3 7 -9 -2 -6 -9 -11 -10 -15 -2 -4 6 -12 8 -18 5 -19 -12 -127 -12 -125 0 3
18 13 21 66 21 28 0 51 -2 51 -5z m-87 -48 c9 -1 17 -6 17 -12 0 -5 -22 -10
-50 -10 -34 0 -50 4 -50 13 0 12 21 14 83 9z m78 -2 c11 0 17 -4 14 -10 -11
-17 -65 -12 -65 6 0 11 5 14 16 10 9 -3 25 -6 35 -6z m59 -7 c0 -7 -7 -13 -15
-13 -8 0 -15 6 -15 13 0 8 7 14 15 14 8 0 15 -6 15 -14z m-474 -37 c49 0 74
-4 74 -12 0 -11 -25 -14 -120 -15 -89 -2 -110 1 -110 15 0 14 54 27 74 17 5
-2 42 -4 82 -5z m267 1 c19 2 27 -1 27 -11 0 -11 -11 -14 -42 -13 -44 2 -66
16 -45 29 6 4 16 3 22 -1 5 -5 22 -6 38 -4z m-81 -14 c10 -10 4 -13 -28 -13
-21 0 -49 -3 -61 -6 -18 -5 -21 -3 -17 14 5 16 14 19 49 18 24 -1 50 -7 57
-13z m-27 -53 c0 -11 -8 -14 -30 -11 -16 2 -61 4 -99 5 -43 0 -71 5 -73 13 -6
16 17 19 116 13 68 -4 86 -8 86 -20z m67 21 c11 6 20 4 28 -6 7 -8 11 -15 9
-16 -2 -1 -23 -3 -46 -5 -38 -3 -43 -1 -43 17 0 16 4 18 18 10 10 -6 24 -6 34
0z m183 -2 c30 -1 55 -3 55 -6 0 -15 -28 -29 -45 -23 -11 4 -33 6 -50 4 -38
-4 -67 11 -45 25 8 5 17 8 22 5 4 -3 32 -5 63 -5z m113 -2 c10 4 13 1 10 -8
-6 -18 -58 -22 -58 -5 0 19 12 28 23 17 5 -5 16 -7 25 -4z m-224 -12 c3 -9 0
-15 -9 -15 -8 0 -15 7 -15 15 0 8 4 15 9 15 5 0 11 -7 15 -15z m-295 -41 c11
-10 -14 -24 -32 -18 -12 4 -34 7 -49 6 -34 -1 -37 15 -5 21 21 4 78 -1 86 -9z
m118 -8 c-2 -6 -9 -11 -15 -10 -7 1 -30 2 -52 3 -45 1 -54 18 -12 23 42 5 83
-3 79 -16z m225 6 c9 -9 -13 -12 -89 -11 -55 1 -105 -1 -112 -5 -6 -4 -11 -1
-11 8 0 17 30 21 133 20 37 0 73 -6 79 -12z m96 9 c65 -1 50 -18 -18 -20 -46
-1 -60 2 -60 13 0 8 7 13 18 11 9 -2 36 -4 60 -4z m-518 -57 c0 -17 -18 -20
-87 -16 -44 3 -63 8 -63 17 0 10 18 13 75 12 48 -1 75 -6 75 -13z m140 -5 c0
-6 -9 -8 -19 -4 -11 3 -22 2 -24 -2 -7 -11 -87 -4 -87 8 0 8 107 17 123 11 4
-2 7 -8 7 -13z m88 12 c43 -2 21 -18 -28 -20 -27 -1 -50 2 -50 7 0 14 10 19
33 17 12 -1 32 -3 45 -4z m112 0 c43 -2 17 -21 -30 -21 -33 0 -50 4 -50 13 0
11 13 12 80 8z m93 -1 c9 0 17 -4 17 -10 0 -5 -18 -10 -40 -10 -30 0 -40 4
-40 16 0 12 6 15 23 10 12 -3 30 -6 40 -6z m107 -2 c0 -10 -46 -29 -63 -25 -7
1 -12 -7 -12 -18 0 -15 -8 -21 -32 -23 -28 -3 -33 0 -33 17 0 18 3 19 25 11
22 -8 26 -6 31 15 6 23 25 32 67 31 9 0 17 -4 17 -8z m-510 -54 c0 -8 -7 -14
-15 -14 -8 0 -15 9 -15 20 0 13 5 18 15 14 8 -4 15 -12 15 -20z m130 0 c0 -8
-7 -14 -15 -14 -8 0 -15 6 -15 13 0 8 -3 8 -8 1 -4 -5 -24 -11 -44 -12 -30 -2
-38 1 -38 14 0 12 7 15 24 12 14 -3 30 -2 36 2 17 11 60 -1 60 -16z m134 1 c4
-12 -6 -15 -59 -15 -51 0 -65 3 -65 15 0 12 13 15 59 15 43 0 60 -4 65 -15z
m40 0 c-4 -8 -10 -15 -15 -15 -5 0 -9 7 -9 15 0 8 7 15 15 15 9 0 12 -6 9 -15z
m22 -12 c-10 -10 -19 5 -10 18 6 11 8 11 12 0 2 -7 1 -15 -2 -18z m34 6 c0 -5
-4 -9 -10 -9 -5 0 -10 7 -10 16 0 8 5 12 10 9 6 -3 10 -10 10 -16z m-443 -32
c16 -16 -17 -25 -104 -26 -54 -1 -113 -3 -130 -5 -27 -2 -33 1 -33 18 0 20 5
21 131 19 72 0 133 -4 136 -6z m-376 -51 c13 8 215 13 237 6 6 -2 12 -10 12
-17 0 -9 -21 -12 -75 -10 -71 2 -76 1 -81 -21 -5 -19 -12 -22 -45 -21 -21 2
-39 0 -39 -4 0 -4 -15 -6 -32 -4 -35 3 -55 35 -22 35 13 0 15 3 7 11 -17 17
-5 43 13 28 7 -6 19 -7 25 -3z m289 -12 c0 -8 -4 -14 -9 -14 -11 0 -22 26 -14
34 9 9 23 -3 23 -20z m-40 -89 c0 -9 -9 -15 -25 -15 -16 0 -25 6 -25 15 0 9 9
15 25 15 16 0 25 -6 25 -15z m-230 -56 c0 -12 8 -23 20 -26 33 -9 23 -29 -15
-28 -27 0 -35 4 -35 18 0 10 5 15 10 12 6 -3 10 -1 10 4 0 6 -11 11 -25 11
-16 0 -25 6 -25 15 0 10 10 15 30 15 24 0 30 -4 30 -21z m220 -39 c0 -4 -7
-10 -15 -13 -16 -7 -29 8 -20 23 6 10 35 2 35 -10z m-133 -4 c-6 -16 16 -40
26 -29 4 3 7 -1 7 -9 0 -9 -7 -18 -15 -22 -8 -3 -15 -2 -15 2 0 4 -25 5 -56 4
-44 -3 -55 -1 -52 10 4 9 22 13 59 12 52 -2 53 -1 31 16 -28 23 -28 30 -1 30
14 0 19 -5 16 -14z m83 4 c0 -5 -4 -10 -10 -10 -5 0 -10 5 -10 10 0 6 5 10 10
10 6 0 10 -4 10 -10z m60 -47 c0 -9 -16 -13 -50 -13 -36 0 -50 4 -50 14 0 9
14 13 50 12 34 0 50 -4 50 -13z"/>
<path d="M336 894 c-8 -22 1 -31 16 -16 9 9 9 15 1 23 -7 7 -12 5 -17 -7z"/>
<path d="M275 880 c-7 -12 2 -12 30 0 19 8 19 9 -2 9 -12 1 -25 -3 -28 -9z"/>
<path d="M675 1680 c-19 -8 -19 -9 3 -9 12 -1 22 4 22 9 0 6 -1 10 -2 9 -2 0
-12 -4 -23 -9z"/>
<path d="M873 1659 c1 -18 6 -25 15 -21 7 2 9 8 4 11 -5 3 -12 13 -15 21 -3 8
-5 3 -4 -11z"/>
<path d="M805 1649 c-32 -7 -32 -9 3 -13 12 -2 22 1 22 5 0 5 7 6 15 3 8 -4
15 -4 15 -1 0 10 -26 13 -55 6z"/>
<path d="M611 1623 c-10 -26 -10 -27 4 -9 8 11 15 23 15 28 0 15 -7 8 -19 -19z"/>
<path d="M735 1643 c11 -3 24 -10 28 -17 6 -7 7 -6 4 4 -2 8 -14 16 -28 17
-19 1 -20 1 -4 -4z"/>
<path d="M636 1602 c-3 -5 1 -9 9 -9 8 0 15 4 15 9 0 4 -4 8 -9 8 -6 0 -12 -4
-15 -8z"/>
<path d="M680 1600 c0 -4 29 -7 65 -6 36 0 65 4 65 8 0 4 -29 7 -65 6 -36 0
-65 -4 -65 -8z"/>
<path d="M824 1601 c7 -10 31 -9 42 2 4 4 -5 7 -20 7 -15 0 -25 -4 -22 -9z"/>
<path d="M880 1600 c0 -6 7 -10 15 -10 8 0 15 2 15 4 0 2 -7 6 -15 10 -8 3
-15 1 -15 -4z"/>
<path d="M723 1565 c-13 -5 -23 -13 -23 -17 0 -9 138 -3 147 6 5 5 -16 6 -44
5 -30 -2 -54 0 -55 6 -2 7 -11 7 -25 0z"/>
<path d="M592 1540 c0 -19 2 -27 5 -17 2 9 2 25 0 35 -3 9 -5 1 -5 -18z"/>
<path d="M620 1550 c-11 -7 -3 -9 26 -7 23 1 40 5 37 10 -6 10 -45 9 -63 -3z"/>
<path d="M623 1493 c0 -33 10 -42 23 -22 3 6 2 14 -3 18 -6 3 -12 13 -15 21
-3 8 -6 0 -5 -17z"/>
<path d="M681 1499 c14 -8 67 -4 77 6 3 3 -16 4 -42 4 -26 -1 -41 -6 -35 -10z"/>
<path d="M770 1493 c0 -10 4 -14 8 -8 4 6 11 13 16 18 5 4 2 7 -7 7 -10 0 -17
-8 -17 -17z"/>
<path d="M701 1454 c6 -7 16 -11 21 -8 11 7 3 17 -18 20 -12 2 -13 -1 -3 -12z"/>
<path d="M654 1452 c4 -3 14 -7 22 -8 9 -1 13 0 10 4 -4 3 -14 7 -22 8 -9 1
-13 0 -10 -4z"/>
<path d="M2114 1435 c-22 -23 -26 -33 -21 -68 2 -23 8 -50 12 -59 6 -15 1 -18
-32 -18 -49 0 -69 15 -80 59 -5 19 -15 37 -22 39 -11 4 -12 -2 -7 -24 24 -103
34 -108 229 -112 150 -4 159 -3 155 15 -3 16 -16 18 -110 21 l-107 3 -11 33
c-13 39 -1 80 29 95 11 6 61 11 111 11 69 0 91 3 88 13 -3 8 -36 13 -106 15
-99 3 -103 2 -128 -23z"/>
<path d="M612 1430 c0 -14 2 -19 5 -12 2 6 2 18 0 25 -3 6 -5 1 -5 -13z"/>
<path d="M443 1323 c9 -2 15 -8 12 -12 -5 -9 31 -6 59 5 12 4 17 4 13 -2 -3
-5 3 -10 14 -10 10 0 19 4 19 7 0 11 -29 17 -85 17 -27 0 -42 -2 -32 -5z"/>
<path d="M340 1304 c0 -3 7 -12 15 -20 16 -17 18 -14 9 10 -6 15 -24 23 -24
10z"/>
<path d="M285 1260 c-3 -6 1 -7 9 -4 9 3 16 1 16 -5 0 -6 9 -11 20 -11 11 0
20 4 20 10 0 5 -6 7 -14 4 -8 -3 -17 -1 -21 5 -8 14 -22 14 -30 1z"/>
<path d="M388 1263 c6 -2 18 -2 25 0 6 3 1 5 -13 5 -14 0 -19 -2 -12 -5z"/>
<path d="M458 1263 c7 -3 16 -2 19 1 4 3 -2 6 -13 5 -11 0 -14 -3 -6 -6z"/>
<path d="M420 1199 c5 -15 7 -29 5 -31 -2 -2 7 -5 20 -6 14 -1 25 3 25 8 0 5
-7 7 -15 4 -15 -6 -33 22 -21 33 3 4 29 6 56 5 28 0 50 3 50 7 0 4 -29 7 -64
7 l-64 1 8 -28z"/>
<path d="M245 1209 c-4 -6 -5 -12 -2 -15 2 -3 7 2 10 11 7 17 1 20 -8 4z"/>
<path d="M2330 1188 c0 -16 -11 -18 -97 -18 -54 0 -103 -4 -109 -8 -24 -16
-46 -82 -26 -82 4 0 12 10 17 23 9 20 17 22 113 25 l102 3 0 -26 c0 -14 5 -25
10 -25 6 0 10 11 10 25 0 23 4 25 41 25 33 0 40 3 35 16 -3 9 -6 18 -6 20 0 2
-14 4 -31 4 -19 0 -37 7 -45 18 -13 16 -13 16 -14 0z"/>
<path d="M343 1164 c-3 -8 -3 -18 1 -21 3 -4 6 1 6 9 0 11 8 14 32 12 17 -2
28 -1 25 2 -14 14 -58 12 -64 -2z"/>
<path d="M480 1172 c0 -4 11 -8 25 -8 14 0 25 4 25 8 0 4 -11 8 -25 8 -14 0
-25 -4 -25 -8z"/>
<path d="M373 1133 c-28 -10 -10 -20 38 -22 32 -1 48 2 44 9 -3 5 -18 7 -32 4
-14 -4 -28 -2 -32 3 -3 6 -12 8 -18 6z"/>
<path d="M260 1119 c0 -3 20 -7 45 -7 25 -1 45 2 45 6 0 4 -20 8 -45 8 -25 0
-45 -3 -45 -7z"/>
<path d="M1540 1102 c0 -5 7 -9 15 -9 8 0 15 4 15 9 0 4 -7 8 -15 8 -8 0 -15
-4 -15 -8z"/>
<path d="M1605 1100 c-4 -6 5 -9 19 -8 15 1 26 6 26 10 0 12 -38 10 -45 -2z"/>
<path d="M1660 1100 c0 -5 5 -10 11 -10 5 0 7 5 4 10 -3 6 -8 10 -11 10 -2 0
-4 -4 -4 -10z"/>
<path d="M339 1083 c-1 -4 -1 -16 0 -25 2 -16 -9 -23 -31 -19 -5 0 -8 -3 -8
-8 0 -6 17 -9 38 -7 20 2 43 -2 51 -8 11 -9 13 -8 9 4 -3 9 -15 14 -28 12 -19
-2 -22 2 -18 23 3 14 1 28 -3 31 -5 3 -10 2 -10 -3z"/>
<path d="M1517 1064 c-8 -8 1 -24 14 -24 5 0 9 7 9 15 0 15 -12 20 -23 9z"/>
<path d="M201 1033 c-1 -18 4 -33 9 -33 12 0 12 17 0 45 -7 17 -9 15 -9 -12z"/>
<path d="M1465 1049 c-3 -4 2 -6 10 -5 21 3 28 13 10 13 -9 0 -18 -4 -20 -8z"/>
<path d="M250 1029 c0 -5 9 -9 20 -9 11 0 20 2 20 4 0 2 -9 6 -20 9 -11 3 -20
1 -20 -4z"/>
<path d="M2123 1022 c-13 -2 -23 -10 -23 -18 0 -11 20 -14 99 -14 l99 0 16
-40 c17 -44 11 -72 -20 -84 -8 -3 -56 -6 -105 -6 -84 0 -89 -1 -89 -21 0 -20
4 -21 106 -17 97 3 107 5 125 27 23 28 24 66 4 105 -8 15 -15 30 -15 32 0 2
40 5 90 6 69 2 88 6 81 16 -5 9 -53 13 -177 15 -93 1 -179 1 -191 -1z"/>
<path d="M220 979 c0 -10 41 -10 85 1 23 5 18 7 -27 7 -32 0 -58 -4 -58 -8z"/>
<path d="M756 911 c-4 -5 3 -7 14 -4 23 6 26 13 6 13 -8 0 -17 -4 -20 -9z"/>
<path d="M1615 910 c3 -5 8 -10 11 -10 2 0 4 5 4 10 0 6 -5 10 -11 10 -5 0 -7
-4 -4 -10z"/>
<path d="M1010 860 c0 -5 5 -10 11 -10 5 0 7 5 4 10 -3 6 -8 10 -11 10 -2 0
-4 -4 -4 -10z"/>
<path d="M1615 770 c-3 -5 -1 -10 4 -10 6 0 11 5 11 10 0 6 -2 10 -4 10 -3 0
-8 -4 -11 -10z"/>
<path d="M2180 770 c-45 -11 -90 -61 -90 -101 0 -74 53 -119 141 -119 45 0 55
4 85 34 90 90 -4 218 -136 186z m92 -40 c62 -18 79 -82 32 -119 -41 -32 -136
-30 -169 4 -44 43 -25 95 41 115 40 12 53 11 96 0z"/>
<path d="M1370 722 c0 -5 7 -9 15 -9 8 0 15 4 15 9 0 4 -7 8 -15 8 -8 0 -15
-4 -15 -8z"/>
<path d="M1410 725 c0 -2 7 -8 15 -15 12 -10 15 -10 15 2 0 8 -7 15 -15 15 -8
0 -15 -1 -15 -2z"/>
<path d="M1150 680 c-8 -5 -12 -11 -9 -14 2 -3 11 -1 19 4 8 5 12 11 9 14 -2
3 -11 1 -19 -4z"/>
<path d="M1226 631 c-12 -5 -15 -10 -9 -14 6 -4 16 0 23 8 14 17 13 17 -14 6z"/>
<path d="M1350 630 c-9 -6 -10 -10 -3 -10 6 0 15 5 18 10 8 12 4 12 -15 0z"/>
<path d="M2100 485 c0 -12 18 -15 105 -15 115 0 125 -5 125 -67 0 -55 -15 -62
-127 -64 -92 -2 -103 -4 -103 -21 0 -16 10 -18 105 -18 94 0 106 2 125 22 25
27 27 93 3 143 l-17 35 -108 0 c-89 0 -108 -3 -108 -15z"/>
<path d="M1097 479 c7 -7 15 -10 18 -7 3 3 -2 9 -12 12 -14 6 -15 5 -6 -5z"/>
<path d="M1163 483 c10 -9 57 -10 57 -1 0 4 -14 8 -32 8 -17 0 -28 -3 -25 -7z"/>
<path d="M1250 482 c0 -4 9 -8 20 -9 11 -1 20 2 20 8 0 5 -9 9 -20 9 -11 0
-20 -4 -20 -8z"/>
<path d="M1090 442 c0 -5 7 -9 15 -9 8 0 15 4 15 9 0 4 -7 8 -15 8 -8 0 -15
-4 -15 -8z"/>
<path d="M1018 433 c7 -3 16 -2 19 1 4 3 -2 6 -13 5 -11 0 -14 -3 -6 -6z"/>
<path d="M890 390 c0 -5 9 -10 21 -10 11 0 17 5 14 10 -3 6 -13 10 -21 10 -8
0 -14 -4 -14 -10z"/>
<path d="M1198 383 c7 -3 16 -2 19 1 4 3 -2 6 -13 5 -11 0 -14 -3 -6 -6z"/>
<path d="M770 340 c20 -13 40 -13 40 0 0 6 -12 10 -27 10 -22 0 -25 -2 -13
-10z"/>
<path d="M845 340 c-3 -5 -1 -10 4 -10 6 0 11 5 11 10 0 6 -2 10 -4 10 -3 0
-8 -4 -11 -10z"/>
<path d="M875 340 c3 -5 8 -10 11 -10 2 0 4 5 4 10 0 6 -5 10 -11 10 -5 0 -7
-4 -4 -10z"/>
<path d="M685 300 c-3 -5 -13 -7 -23 -4 -14 5 -14 4 -3 -4 15 -11 41 -5 41 9
0 12 -7 11 -15 -1z"/>
<path d="M1225 300 c-3 -5 -12 -7 -20 -3 -8 3 -15 3 -15 0 0 -13 30 -14 40 -1
7 8 10 14 7 14 -3 0 -8 -4 -12 -10z"/>
<path d="M727 293 c-3 -5 5 -8 18 -8 13 0 21 3 18 8 -2 4 -10 7 -18 7 -8 0
-16 -3 -18 -7z"/>
<path d="M1087 289 c7 -7 15 -10 18 -7 3 3 -2 9 -12 12 -14 6 -15 5 -6 -5z"/>
<path d="M1160 289 c0 -5 5 -7 10 -4 6 3 10 8 10 11 0 2 -4 4 -10 4 -5 0 -10
-5 -10 -11z"/>
<path d="M1045 249 c-11 -16 -1 -19 13 -3 7 8 8 14 3 14 -5 0 -13 -5 -16 -11z"/>
<path d="M1081 244 c0 -11 3 -14 6 -6 3 7 2 16 -1 19 -3 4 -6 -2 -5 -13z"/>
<path d="M1120 249 c0 -11 27 -12 34 -1 2 4 -4 9 -15 9 -10 1 -19 -2 -19 -8z"/>
<path d="M1191 244 c0 -11 3 -14 6 -6 3 7 2 16 -1 19 -3 4 -6 -2 -5 -13z"/>
</g>
</svg>
