<?xml version="1.0" standalone="no"?>
<!DOCTYPE svg PUBLIC "-//W3C//DTD SVG 20010904//EN"
 "http://www.w3.org/TR/2001/REC-SVG-20010904/DTD/svg10.dtd">
<svg version="1.0" xmlns="http://www.w3.org/2000/svg"
 width="279.000000pt" height="181.000000pt" viewBox="0 0 279.000000 181.000000"
 preserveAspectRatio="xMidYMid meet">
<metadata>
Created by potrace 1.13, written by Peter Selinger 2001-2015
</metadata>
<g transform="translate(0.000000,181.000000) scale(0.100000,-0.100000)"
fill="#000000" stroke="none">
<path d="M1793 1723 c-10 -3 -13 -59 -13 -230 l0 -224 22 3 c22 3 23 6 20 108
-1 58 1 110 5 116 26 37 115 47 133 15 5 -11 10 -69 10 -130 l0 -111 26 0 26
0 -4 119 c-3 110 -5 121 -27 145 -29 31 -85 35 -132 11 -38 -20 -41 -12 -36
99 3 85 1 92 -30 79z"/>
<path d="M334 1696 c-26 -11 -33 -22 -39 -55 -4 -22 -4 -45 0 -51 4 -6 28 -11
54 -10 73 3 91 1 91 -10 0 -6 -45 -10 -115 -10 -111 0 -116 -1 -145 -27 -66
-60 -47 -248 26 -254 58 -6 64 -1 64 47 0 39 5 51 31 75 30 28 34 29 134 29
100 0 104 1 124 26 17 22 21 41 21 110 0 73 -3 86 -24 111 -23 26 -30 28 -108
31 -55 1 -93 -3 -114 -12z"/>
<path d="M1620 1605 c0 -33 -4 -45 -15 -45 -8 0 -15 -4 -15 -9 0 -5 7 -11 15
-15 12 -4 15 -27 15 -114 0 -95 2 -111 20 -130 21 -22 80 -31 80 -12 0 6 -9
10 -20 10 -32 0 -41 33 -38 142 l3 103 28 -2 c18 -1 27 3 27 13 0 9 -11 14
-30 14 -29 0 -30 2 -30 45 0 38 -3 45 -20 45 -17 0 -20 -7 -20 -45z"/>
<path d="M1037 1556 c-69 -25 -67 -19 -67 -227 0 -176 1 -189 19 -199 11 -5
22 -10 25 -10 3 0 6 39 6 86 0 78 2 85 18 78 31 -14 99 -16 121 -4 88 46 79
248 -12 280 -39 13 -63 12 -110 -4z m112 -42 c16 -21 21 -41 21 -90 0 -107
-34 -145 -111 -123 l-39 12 0 104 c0 98 1 104 23 113 44 18 84 12 106 -16z"/>
<path d="M2141 1553 c-87 -46 -96 -198 -16 -261 19 -15 42 -22 73 -22 87 0
139 70 130 172 -10 96 -106 154 -187 111z m100 -26 c28 -21 39 -54 39 -112 0
-82 -28 -124 -82 -125 -17 0 -35 10 -52 31 -23 26 -26 40 -26 100 0 61 3 73
25 94 26 27 70 32 96 12z"/>
<path d="M2470 1561 c-14 -5 -40 -16 -58 -25 l-32 -17 0 -124 0 -125 26 0 25
0 -3 125 c-3 121 -2 124 20 135 36 16 80 12 102 -10 18 -18 20 -33 20 -135 0
-113 0 -115 23 -115 21 0 22 2 21 108 -1 154 0 150 -36 172 -34 21 -65 24
-108 11z"/>
<path d="M1292 1551 c-11 -6 -13 -35 -10 -121 3 -108 4 -113 31 -136 31 -26
93 -32 141 -14 27 10 30 7 27 -35 -5 -63 -23 -83 -88 -94 -24 -4 -30 -10 -24
-19 12 -20 78 -4 114 27 37 34 46 80 46 264 l1 137 -25 0 -25 0 0 -121 0 -120
-36 -15 c-38 -16 -68 -12 -96 14 -15 13 -18 33 -18 129 0 115 -4 126 -38 104z"/>
<path d="M540 845 c0 -6 5 -16 10 -21 8 -8 6 -15 -5 -24 -8 -7 -15 -21 -15
-32 0 -11 -9 -22 -20 -25 -11 -3 -20 -10 -20 -15 0 -5 -9 -21 -19 -34 -18 -23
-19 -28 -5 -77 33 -113 56 -177 63 -172 5 2 13 -7 20 -21 8 -19 8 -24 0 -18
-16 10 31 -74 50 -89 17 -13 14 -7 -21 48 l-20 30 24 -29 c12 -16 45 -51 71
-78 59 -60 56 -74 -5 -22 -30 27 -36 30 -18 10 27 -32 137 -106 154 -106 6 1
-2 8 -17 16 -40 22 -26 29 14 8 19 -9 46 -17 61 -16 15 0 30 -4 33 -9 4 -5 16
-9 28 -10 21 0 21 -1 2 -9 -11 -5 -14 -9 -7 -9 7 -1 22 3 32 9 12 6 37 6 74
-2 46 -9 75 -8 161 7 72 13 105 22 105 32 0 8 -13 13 -32 14 -18 1 -42 2 -53
3 -11 1 -30 3 -43 4 -19 2 -21 5 -12 22 15 27 -6 27 -36 -1 -20 -18 -26 -19
-65 -9 -101 27 -206 114 -244 202 -14 31 -14 32 -15 7 0 -14 9 -34 21 -45 11
-10 36 -40 55 -66 32 -43 85 -77 194 -122 8 -3 -3 -3 -25 0 -22 3 -58 7 -80 9
-56 5 -85 15 -85 29 0 16 -47 59 -85 79 -16 9 -25 16 -18 17 19 0 4 27 -19 33
-15 4 -18 11 -13 26 4 14 0 23 -17 32 -13 7 -24 12 -25 11 -11 -7 -23 1 -24
16 0 11 -2 12 -6 4 -3 -7 1 -19 7 -27 15 -18 9 -19 -25 -3 -28 12 -33 28 -10
28 8 0 15 6 15 14 0 8 9 18 21 21 21 7 22 26 1 33 -7 2 -10 -2 -6 -11 7 -20
-28 -17 -39 3 -4 8 -5 1 -2 -17 2 -18 1 -33 -4 -33 -8 0 -41 60 -41 74 0 14
19 5 23 -11 4 -17 5 -17 6 0 0 9 6 17 11 17 6 0 10 5 10 11 0 8 -4 8 -13 0
-10 -8 -18 -7 -32 3 -18 13 -18 14 3 27 26 16 29 41 5 33 -10 -2 -7 1 7 7 14
6 41 20 61 30 20 11 45 19 56 19 11 0 28 7 39 15 12 9 31 12 52 9 38 -7 41 0
7 22 -24 15 -26 15 -42 -4 -12 -13 -44 -26 -88 -36 -38 -8 -88 -19 -110 -25
-33 -9 -42 -8 -52 5 -10 14 -12 13 -22 -3 -10 -17 -10 -17 -11 0 0 23 28 33
51 19 24 -16 27 -15 25 4 -1 11 12 20 38 28 40 11 65 39 27 29 -12 -3 -21 -1
-21 6 0 6 9 12 20 13 11 0 26 1 33 2 6 1 11 -7 9 -16 -2 -13 2 -16 14 -11 9 3
20 0 25 -8 6 -10 9 -10 9 -1 0 6 12 12 28 12 l27 1 -30 16 c-16 9 -32 19 -35
23 -3 4 -17 10 -32 14 -16 3 -28 13 -28 21 0 9 -10 15 -25 15 -17 0 -25 5 -25
18 0 11 -7 18 -20 18 -11 0 -20 -5 -20 -11z"/>
<path d="M1361 827 l-44 -19 24 -19 c23 -17 24 -22 27 -173 3 -144 2 -156 -17
-175 -26 -26 -19 -29 54 -22 l59 6 -27 18 -27 17 -2 193 -3 193 -44 -19z"/>
<path d="M2053 831 c-38 -19 -41 -31 -13 -49 19 -11 20 -23 20 -172 0 -147 -1
-160 -20 -173 -11 -8 -18 -16 -16 -18 9 -8 136 3 130 12 -3 5 -13 9 -24 9 -19
0 -34 38 -24 63 12 33 33 24 79 -35 38 -49 50 -59 68 -54 12 3 32 6 45 6 12 0
22 5 22 10 0 6 -9 10 -20 10 -25 0 -81 50 -105 94 l-19 35 25 20 c13 11 41 26
61 32 21 7 35 16 32 20 -7 13 -134 11 -134 -1 0 -5 7 -10 15 -10 8 0 15 -4 15
-9 0 -11 -70 -71 -82 -71 -5 0 -8 68 -8 150 0 83 -3 149 -7 149 -5 -1 -23 -9
-40 -18z"/>
<path d="M1000 802 c0 -4 9 -13 20 -20 19 -11 20 -23 20 -167 0 -146 -1 -155
-22 -175 l-22 -20 79 0 c47 0 75 4 69 9 -5 5 -18 11 -29 13 -18 3 -20 12 -23
83 l-3 80 46 -3 c39 -4 48 -8 57 -31 11 -26 11 -26 19 14 11 55 11 85 0 85 -5
0 -13 -9 -16 -20 -5 -16 -15 -20 -56 -20 l-50 0 3 78 3 77 60 -3 c52 -2 63 -6
82 -30 l23 -27 0 27 c0 14 3 33 6 42 5 14 -10 16 -130 16 -75 0 -136 -3 -136
-8z"/>
<path d="M1603 649 c-41 -8 -85 -37 -80 -52 7 -21 27 -18 52 7 40 40 75 28 75
-25 0 -25 -6 -29 -53 -43 -85 -25 -114 -78 -62 -112 22 -14 32 -15 64 -5 21 6
52 8 68 5 31 -6 73 9 73 26 0 5 -10 9 -22 7 -22 -2 -23 2 -26 83 -4 108 -17
125 -89 109z"/>
<path d="M1850 653 c-30 -12 -50 -37 -50 -63 0 -31 18 -49 78 -79 34 -17 43
-27 40 -44 -4 -31 -52 -35 -89 -8 -37 27 -41 26 -37 -6 2 -23 10 -29 42 -36
54 -13 114 6 127 41 15 39 -2 66 -63 99 -37 19 -53 34 -53 48 0 29 55 33 80 5
10 -11 22 -20 27 -20 10 0 10 31 0 47 -9 14 -80 25 -102 16z"/>
</g>
</svg>
