<svg width="580" height="400" xmlns="http://www.w3.org/2000/svg" xmlns:xlink="http://www.w3.org/1999/xlink">
 <!-- Created with Method Draw - http://github.com/duopixel/Method-Draw/ -->
 <defs>
  <linearGradient id="svg_47">
   <stop stop-color="#b8b8b8" stop-opacity="0.498039" offset="0" id="svg_73"/>
   <stop stop-color="#7f7f7f" stop-opacity="0" offset="1" id="svg_72"/>
  </linearGradient>
  <linearGradient id="svg_43">
   <stop stop-color="#ffd43b" offset="0" id="svg_62"/>
   <stop stop-color="#ffe873" offset="1" id="svg_61"/>
  </linearGradient>
  <linearGradient id="svg_45">
   <stop stop-color="#5a9fd4" offset="0" id="svg_60"/>
   <stop stop-color="#306998" offset="1" id="svg_59"/>
  </linearGradient>
  <radialGradient gradientTransform="matrix(2.2497156138001628e-8,-0.2964281141757965,1.3565616607666016,4.6840378331580723e-7,19.300512313842773,303.4467468261719)" gradientUnits="userSpaceOnUse" xlink:href="#svg_47" id="svg_46" fy="132.28575" fx="61.518883" r="29.036913" cy="132.28575" cx="61.518883"/>
  <linearGradient xlink:href="#svg_45" id="svg_44" y2="0.641115" x2="0.745195" y1="0.000004" x1="-0.000022"/>
  <linearGradient xlink:href="#svg_43" id="svg_42" y2="0.449146" x2="0.234416" y1="0.822746" x1="0.49999"/>
 </defs>
 <g>
  <title>background</title>
  <rect fill="#fff" id="canvas_background" height="402" width="582" y="-1" x="-1"/>
  <g display="none" overflow="visible" y="0" x="0" height="100%" width="100%" id="canvasGrid">
   <rect fill="url(#gridpattern)" stroke-width="0" y="0" x="0" height="100%" width="100%"/>
  </g>
 </g>
 <g>
  <title>Layer 1</title>
  <metadata id="svg_79">image/svg+xml</metadata>

  <g id="svg_81">
   <path opacity="0.44382" fill="url(#svg_46)" fill-rule="nonzero" id="svg_78" d="m244.970367,285.210907a46.216045,8.60735 0 1 1 -92.432068,0a46.216045,8.60735 0 1 1 92.432068,0z"/>
   <path fill="#646464" id="svg_77" d="m202.725449,73.855476c-41.962158,0 -75.915222,11.851242 -101.733963,35.440262c-24.43647,22.236229 -36.65799,49.532448 -36.65799,81.999016c0,34.538025 11.272476,63.290787 33.884521,86.245682c24.934097,25.702667 59.484604,38.605927 103.824158,38.605927c44.726593,0 79.7742,-12.903259 105.150543,-38.605927c6.792572,-6.763336 12.56958,-14.043579 17.364288,-21.812363l-51.690979,0c-13.38913,23.837112 -36.656342,35.856277 -69.819,36.057938c-29.633408,0.380493 -51.86702,-10.87854 -66.683792,-33.664368c-11.610008,-17.881973 -17.364296,-40.15184 -17.364296,-66.826889c0,-58.169235 27.646461,-88.542274 83.043236,-90.994202c29.965149,1.05687 52.13855,11.256607 66.402344,30.575897c2.715485,3.588135 5.091949,7.409943 7.194946,11.427368l55.027222,0c-6.045441,-12.035721 -14.55307,-23.025002 -25.523926,-33.00808c-26.316315,-23.58902 -60.455017,-35.440262 -102.417313,-35.440262z"/>
   <g id="svg_74" transform="matrix(1.42536, 0, 0, 1.36901, -352.584, -120.862)">
    <path fill="url(#svg_44)" id="svg_76" d="m391.016907,174.53035c-4.583679,0.021286 -8.960938,0.412216 -12.8125,1.09375c-11.346191,2.004501 -13.40625,6.200089 -13.40625,13.9375l0,10.21875l26.8125,0l0,3.40625l-26.8125,0l-10.0625,0c-7.79248,0 -14.615723,4.683716 -16.75,13.59375c-2.461792,10.212952 -2.570984,16.585999 0,27.25c1.905945,7.937836 6.45752,13.593735 14.25,13.593735l9.21875,0l0,-12.249985c0,-8.849915 7.657166,-16.65625 16.75,-16.65625l26.78125,0c7.454956,0 13.40625,-6.138184 13.40625,-13.625l0,-25.53125c0,-7.266357 -6.129944,-12.724792 -13.40625,-13.9375c-4.605957,-0.766724 -9.385071,-1.115051 -13.96875,-1.09375zm-14.5,8.21875c2.769531,0 5.03125,2.298645 5.03125,5.125c0,2.81633 -2.261719,5.09375 -5.03125,5.09375c-2.77948,0 -5.03125,-2.27742 -5.03125,-5.09375c0,-2.826355 2.25177,-5.125 5.03125,-5.125z"/>
    <path fill="url(#svg_42)" id="svg_75" d="m421.735657,203.1866l0,11.90625c0,9.230743 -7.825928,17 -16.75,17l-26.78125,0c-7.335815,0 -13.40625,6.278473 -13.40625,13.625l0,25.531265c0,7.266327 6.318604,11.540314 13.40625,13.625c8.487305,2.495605 16.626221,2.946625 26.78125,0c6.750122,-1.954407 13.40625,-5.887634 13.40625,-13.625l0,-10.21875l-26.78125,0l0,-3.406281l26.78125,0l13.40625,0c7.79248,0 10.696228,-5.43541 13.40625,-13.593735c2.799316,-8.398895 2.680237,-16.4758 0,-27.25c-1.925781,-7.757446 -5.603882,-13.59375 -13.40625,-13.59375l-10.0625,0zm-15.0625,64.656265c2.77948,0 5.03125,2.277405 5.03125,5.09375c0,2.826355 -2.25177,5.125 -5.03125,5.125c-2.769531,0 -5.03125,-2.298645 -5.03125,-5.125c0,-2.816345 2.261719,-5.09375 5.03125,-5.09375z"/>
   </g>
  </g>
  <text font-weight="bold" transform="matrix(1.7213, 0, 0, 2.0875, -158.731, -184.505)" xml:space="preserve" text-anchor="start" font-family="'League Gothic', sans-serif" font-size="24" id="svg_82" y="191.00306" x="265.070623" stroke-width="0" stroke="#000" fill="#444444">WEB APP</text>
 </g>
</svg>